<svg xmlns="http://www.w3.org/2000/svg" viewBox="0 0 512 479.97"><defs><style>.cls-1{fill:#ea6d52;}.cls-2{fill:#fac66c;}.cls-3{fill:#fff;}</style></defs><title>app_logo2</title><g id="Layer_2" data-name="Layer 2"><g id="Layer_1-2" data-name="Layer 1"><path class="cls-1" d="M379.93,376.44l-246.07.69V335.29c0-115.69,55.1-209.48,123-209.51h0c68,0,123.06,93.81,123,209.56v41.09Z"/><path class="cls-1" d="M247.86,101.28l-29.69-76A18.55,18.55,0,0,1,233.41.11h0a18.55,18.55,0,0,1,20.52,19.81Z"/><path class="cls-1" d="M315.9,100.9l13.39-59a13,13,0,0,1,20.41-7.62h0a13,13,0,0,1,2.69,18.37Z"/><path class="cls-1" d="M185,110.9l-31.6-46a13.46,13.46,0,0,0-21.35-1.08h0A13.46,13.46,0,0,0,136,84.41Z"/><path class="cls-2" d="M7.09,336.73a99.35,99.35,0,0,0,50.22,14.16c28.67,0,45.39-15.12,45.39-37,0-20.29-11.59-31.87-40.89-43.15-35.4-12.56-57.31-30.91-57.31-61.49,0-33.8,28-58.91,70.18-58.91,22.23,0,38.33,5.15,48,10.62l-7.74,22.86a86.55,86.55,0,0,0-41.21-10.3c-29.62,0-40.89,17.71-40.89,32.52,0,20.28,13.2,30.27,43.14,41.85,36.7,14.17,55.38,31.88,55.38,63.76,0,33.49-24.79,62.46-76,62.46C34.45,374.07,11.59,368,0,360.23Z"/><path class="cls-3" d="M355.15,260.1c0,74.69-45.39,114.3-100.77,114.3-57.31,0-97.55-44.43-97.55-110.11,0-68.9,42.81-114,100.77-114C316.84,150.32,355.15,195.71,355.15,260.1Zm-168.38,3.54c0,46.36,25.11,87.89,69.23,87.89,44.42,0,69.53-40.89,69.53-90.15,0-43.15-22.53-88.22-69.23-88.22C210,173.17,186.77,216,186.77,263.65Z"/><path class="cls-2" d="M387.72,336.73a99.28,99.28,0,0,0,50.22,14.16c28.67,0,45.39-15.12,45.39-37,0-20.29-11.59-31.87-40.89-43.15-35.4-12.56-57.31-30.91-57.31-61.49,0-33.8,28-58.91,70.18-58.91,22.23,0,38.33,5.15,48,10.62l-7.74,22.86a86.55,86.55,0,0,0-41.21-10.3c-29.62,0-40.89,17.71-40.89,32.52,0,20.28,13.2,30.27,43.14,41.85C493.32,262,512,279.75,512,311.62c0,33.49-24.79,62.46-76,62.46-20.93,0-43.79-6.11-55.38-13.85Z"/><path class="cls-2" d="M11.35,388.58h11.7v43.68h.41c2.41-3.49,4.83-6.72,7.11-9.67l27.69-34H72.78L40,427l35.34,52.15H61.49L31.66,434.69l-8.6,9.95v34.54H11.35Z"/><path class="cls-2" d="M95.83,388.58v37.91h43.81V388.58h11.83v90.59H139.65V436.7H95.83v42.47H84.13V388.58Z"/><path class="cls-2" d="M218.62,436.7H183.41v32.65h39.24v9.82H171.71V388.58h48.92v9.82H183.41V427h35.21Z"/><path class="cls-2" d="M237.78,389.79a168,168,0,0,1,24.87-1.89c16.79,0,28.75,3.9,36.68,11.29,8.08,7.4,12.78,17.88,12.78,32.53s-4.57,26.88-13,35.21-22.45,13-40,13a189.17,189.17,0,0,1-21.26-1.07Zm11.7,80.1a73.48,73.48,0,0,0,11.83.67c25,0,38.57-14,38.57-38.44.13-21.37-12-34.95-36.68-34.95a66.56,66.56,0,0,0-13.72,1.21Z"/><path class="cls-2" d="M403.58,439.39c-.67-12.63-1.47-27.82-1.34-39.11h-.41c-3.1,10.62-6.85,21.91-11.42,34.41l-16,43.94h-8.88l-14.65-43.14c-4.29-12.77-7.93-24.46-10.49-35.21h-.26c-.26,11.29-.93,26.48-1.76,40.05L336,479.17H324.82l6.31-90.59H346L361.5,432.4c3.77,11.15,6.87,21.09,9.14,30.51h.41c2.28-9.14,5.5-19.09,9.53-30.51l16.12-43.82h14.93l5.66,90.59H405.85Z"/><path class="cls-2" d="M448.51,450.68l-9.43,28.49H427l30.79-90.59h14.11l30.92,90.59h-12.5l-9.69-28.49Zm29.68-9.14-8.86-26.08c-2-5.9-3.36-11.29-4.7-16.53h-.26c-1.34,5.38-2.84,10.89-4.57,16.4l-8.88,26.21Z"/></g></g></svg>