<?xml version="1.0" encoding="UTF-8"?>
<svg width="502px" height="470px" viewBox="0 0 502 470" version="1.1" xmlns="http://www.w3.org/2000/svg" xmlns:xlink="http://www.w3.org/1999/xlink">
    <!-- Generator: Sketch 52.5 (67469) - http://www.bohemiancoding.com/sketch -->
    <title>gift (1)</title>
    <desc>Created with Sketch.</desc>
    <g id="Page-2" stroke="none" stroke-width="1" fill="none" fill-rule="evenodd">
        <g id="icon" transform="translate(-2558.000000, -2376.000000)" fill="#ffffff" fill-rule="nonzero">
            <g id="gift-(1)" transform="translate(2558.000000, 2376.000000)">
                <path d="M383.4,55.668 C378.35127,50.5723491 371.473233,47.7091409 364.3,47.717 L342.135,47.676 L345.141,44.601 C351.75818,38.1494819 354.399102,28.6403167 352.056478,19.7004469 C349.713853,10.7605772 342.74892,3.76855307 333.818212,1.39124061 C324.887504,-0.986071852 315.368158,1.61791485 308.891,8.21 L272.315,44.65 L245.479,17.714 C240.681806,12.8723335 234.146773,10.1514437 227.331,10.158 L227.282,10.158 C218.364805,10.16523 210.088667,14.7943081 205.415198,22.3887205 C200.74173,29.9831329 200.338952,39.4573399 204.351,47.421 L179.166,47.374 L179.115,47.374 C164.20823,47.3739765 152.116476,59.4442532 152.09,74.351 L152.036,104.116 C152.033079,105.709204 152.66393,107.238155 153.789465,108.365753 C154.915,109.493352 156.442793,110.127003 158.036,110.127 L166.912,110.127 L166.912,217.25 C166.929083,232.168966 179.019034,244.258917 193.938,244.276 L349.379,244.276 C364.297966,244.258917 376.387917,232.168966 376.405,217.25 L376.405,110.127 L385.228,110.127 C388.537417,110.127006 391.221933,107.447412 391.228,104.138 L391.281,74.794 C391.314328,67.6218788 388.476389,60.734627 383.4,55.668 Z M317.359,16.711 C320.832336,13.2699962 325.877585,11.9433804 330.594249,13.2308759 C335.310914,14.5183713 338.982421,18.2243769 340.225749,22.9528761 C341.469078,27.6813753 340.095336,32.7139965 336.622,36.155 L325.46,47.569 L286.385,47.569 L317.359,16.711 Z M217.625,26.148 C220.184147,23.5843457 223.660644,22.148104 227.283,22.158 L227.309,22.158 C230.940578,22.1550948 234.422477,23.6047459 236.979,26.184 L258.236,47.521 L219.252,47.17 L217.589,45.5 C212.254945,40.1457983 212.271062,31.4813201 217.625,26.147 L217.625,26.148 Z M239.572,232.276 L193.938,232.276 C185.643253,232.266631 178.921369,225.544747 178.912,217.25 L178.912,110.127 L239.636,110.127 L239.572,232.276 Z M239.642,98.127 L164.047,98.127 L164.09,74.373 C164.104341,66.0849152 170.826903,59.3735392 179.115,59.373 L179.145,59.373 L239.662,59.485 L239.642,98.127 Z M293.03,232.276 L251.572,232.276 L251.636,110.127 L293.093,110.127 L293.03,232.276 Z M293.099,98.127 L251.642,98.127 L251.662,59.508 L293.119,59.585 L293.099,98.127 Z M364.405,217.25 C364.395631,225.544747 357.673747,232.266631 349.379,232.276 L305.03,232.276 L305.093,110.127 L364.405,110.127 L364.405,217.25 Z M379.238,98.127 L305.1,98.127 L305.12,59.607 L364.284,59.717 C368.269492,59.7238893 372.088982,61.3138671 374.902086,64.1370988 C377.715191,66.9603304 379.291433,70.785509 379.284,74.771 L379.238,98.127 Z" id="Shape"></path>
                <path d="M445.022,289.982 L441.836,291.701 C431.371,278.577 412.87,273.409 398.828,280.527 C398.783,280.55 398.738,280.573 398.694,280.597 L391.98,284.214 C376.877525,271.148227 355.160804,269.070644 337.855,279.036 L303.89,297.505 L258.732,297.505 C248.885365,297.492083 239.167663,295.265152 230.298,290.989 L224.112,288 C188.442818,270.643359 146.04928,274.783395 114.412,298.713 C114.281,298.813 114.153,298.913 114.03,299.025 L99.1,312.32 C93.656,317.164 37.43,346.7 3.267,364.181 C1.35866561,365.157407 0.116198763,367.077728 0.00762474805,369.218598 C-0.100949267,371.359467 0.94086453,373.395635 2.74062492,374.560098 C4.5403853,375.72456 6.82466582,375.840407 8.733,374.864 C23.717,367.197 98.876,328.584 107.077,321.283 L121.824,308.153 C149.858354,287.063416 187.342816,283.451833 218.888,298.801 L225.073,301.792 C235.572686,306.85348 247.076026,309.489484 258.732,309.505 L318.719,309.505 C337.597377,309.529736 353.697679,323.18409 356.805,341.805 L312.423,339.8 C296.6611,339.09167 280.867442,339.821355 265.238,341.98 C263.096178,342.252756 261.266072,343.65526 260.445811,345.6525 C259.62555,347.64974 259.941644,349.933683 261.273511,351.633072 C262.605378,353.332462 264.747607,354.185203 266.883,353.866 C281.788627,351.806646 296.851019,351.111099 311.883,351.788 L363.05,354.104 C364.687713,354.178046 366.284402,353.578748 367.468935,352.445404 C368.653468,351.31206 369.322673,349.743385 369.321,348.104 C369.321,346.873 369.262,345.656 369.175,344.446 L376.606,340.528 L450.725,300.543 C462.996726,293.898288 478.2264,296.559921 487.517,306.973 L337,410.319 C317.211366,419.964025 294.870476,423.073891 273.2,419.2 L183.229,402.632 C173.488347,400.22452 163.196153,401.624018 154.452,406.545 L64.31,458.07 C62.4380368,459.128258 61.2755456,461.107387 61.2628539,463.257735 C61.2501621,465.408083 62.3892108,467.400796 64.2485519,468.481077 C66.107893,469.561358 68.4031778,469.563999 70.265,468.488 L160.358,416.988 C166.482445,413.552979 173.690758,412.59669 180.499,414.316 C180.623,414.348 180.748,414.375 180.874,414.397 L271.044,431.003 C295.396836,435.359122 320.504525,431.814906 342.7,420.888 C342.954887,420.7619 343.200504,420.617872 343.435,420.457 L499.4,313.37 C502.017334,311.573389 502.782193,308.048898 501.145,305.329 C489.555934,286.022327 464.822777,279.258972 445.022,289.982 Z M343.657,289.541 L343.8,289.461 C355.209246,282.864412 369.360062,283.251131 380.392,290.461 L348.826,307.469 C342.546165,302.801045 335.264968,299.660673 327.56,298.297 L343.657,289.541 Z M370.957,329.941 L366.733,332.168 C364.796612,326.351826 361.818477,320.936358 357.944,316.186 L404.314,291.2 C412.634,287.029 423.906,290.017 431.023,297.536 L370.957,329.941 Z" id="Shape"></path>
            </g>
        </g>
    </g>
</svg>