<?xml version="1.0" encoding="UTF-8"?>
<svg width="480px" height="480px" viewBox="0 0 480 480" version="1.1" xmlns="http://www.w3.org/2000/svg" xmlns:xlink="http://www.w3.org/1999/xlink">
    <!-- Generator: Sketch 52.5 (67469) - http://www.bohemiancoding.com/sketch -->
    <title>market</title>
    <desc>Created with Sketch.</desc>
    <g id="Page-2" stroke="none" stroke-width="1" fill="none" fill-rule="evenodd">
        <g id="icon" transform="translate(-1570.000000, -2458.000000)" fill="#ffffff">
            <g id="market" transform="translate(1570.000000, 2458.000000)">
                <g id="Group" transform="translate(8.000000, 56.000000)" fill-opacity="0.300611413">
                    <path d="M448,384 L184,384 L184,264 C184,233.072054 158.927946,208.000001 128,208.000001 C97.0720543,208.000001 72.0000005,233.072054 72,264 L72,384 L16,384 C7.19064974,384.065338 0.0653377959,391.19065 -1.77635684e-15,400 C0.0263584089,408.825615 7.17438507,415.973642 16,416 L448,416 C456.80935,415.934662 463.934662,408.80935 464,400 C463.973642,391.174385 456.825615,384.026358 448,384 Z" id="Path"></path>
                    <rect id="Rectangle" x="232" y="208" width="160" height="144" rx="16"></rect>
                    <circle id="Oval" cx="273" cy="80" r="16"></circle>
                    <polygon id="Path" points="257 64 273 64 281 32 289 0 257 0 225 0 193 0 201 32 209 64 225 64"></polygon>
                    <circle id="Oval" cx="209" cy="80" r="16"></circle>
                    <path d="M72,32 L37.84,32 C29.8826581,32.0355214 23.1480064,37.885825 22,45.76 L8,144 C8,161.673112 22.326888,176 40,176 C57.673112,176 72,161.673112 72,144 C72,161.673112 86.326888,176 104,176 C121.673112,176 136,161.673112 136,144 C136,161.673112 150.326888,176 168,176 C185.673112,176 200,161.673112 200,144 C200,161.673112 214.326888,176 232,176 C249.673112,176 264,161.673112 264,144 C264,161.673112 278.326888,176 296,176 C313.673112,176 328,161.673112 328,144 C328,161.673112 342.326888,176 360,176 C377.673112,176 392,161.673112 392,144 C392,161.673112 406.326888,176 424,176 C441.673112,176 456,161.673112 456,144 L442,45.76 C440.851994,37.885825 434.117342,32.0355214 426.16,32 L360,32 L360,112 C359.973642,120.825615 352.825615,127.973642 344,128 L120,128 C111.174385,127.973642 104.026358,120.825615 104,112 L104,32 L72,32 Z" id="Path"></path>
                </g>
                <path d="M256,416 L384,416 C397.254834,416 408,405.254834 408,392 L408,280 C408,266.745166 397.254834,256 384,256 L256,256 C242.745166,256 232,266.745166 232,280 L232,392 C232,405.254834 242.745166,416 256,416 Z M248,280 C248,275.581722 251.581722,272 256,272 L384,272 C388.418278,272 392,275.581722 392,280 L392,392 C392,396.418278 388.418278,400 384,400 L256,400 C251.581722,400 248,396.418278 248,392 L248,280 Z" id="Shape" fill-rule="nonzero"></path>
                <path d="M360,328 L376,328 L376,296 C376,291.581722 372.418278,288 368,288 L336,288 L336,304 L360,304 L360,328 Z" id="Path"></path>
                <polygon id="Path" points="160 360 176 360 176 376 160 376"></polygon>
                <path d="M456,432 L440,432 L440,239.2 C458.597776,235.350166 471.95138,218.992002 472,200 C472.013219,199.624884 471.986401,199.249429 471.92,198.88 L457.92,100.64 C456.182086,88.8374369 446.089623,80.070247 434.16,80 L376,80 L376,24 C375.960462,10.7615776 365.238422,0.0395376133 352,0 L128,0 C114.761578,0.0395376133 104.039538,10.7615776 104,24 L104,80 L45.84,80 C33.9103769,80.070247 23.8179141,88.8374369 22.08,100.64 L8.08,198.88 C8.01359945,199.249429 7.98678118,199.624884 8,200 C8.04862045,218.992002 21.4022237,235.350166 40,239.2 L40,432 L24,432 C10.745166,432 3.55271368e-15,442.745166 0,456 C-3.55271368e-15,469.254834 10.745166,480 24,480 L456,480 C469.254834,480 480,469.254834 480,456 C480,442.745166 469.254834,432 456,432 Z M408,96 L434.16,96 C438.126443,96.0092208 441.475686,98.9483528 442,102.88 L456,200.56 C455.899966,209.134374 451.233156,217.004055 443.757513,221.20461 C436.28187,225.405164 427.133122,225.298429 419.757513,220.92461 C412.381904,216.55079 407.899966,208.574374 408,200 L408,96 Z M376,168 L376,96 L392,96 L392,200 C392,213.254834 381.254834,224 368,224 C354.745166,224 344,213.254834 344,200 L344,192 L352,192 C365.238422,191.960462 375.960462,181.238422 376,168 Z M120,24 C120,19.581722 123.581722,16 128,16 L352,16 C356.418278,16 360,19.581722 360,24 L360,168 C360,172.418278 356.418278,176 352,176 L128,176 C123.581722,176 120,172.418278 120,168 L120,24 Z M328,192 L328,200 C328,213.254834 317.254834,224 304,224 C290.745166,224 280,213.254834 280,200 L280,192 L328,192 Z M264,192 L264,200 C264,213.254834 253.254834,224 240,224 C226.745166,224 216,213.254834 216,200 L216,192 L264,192 Z M200,192 L200,200 C200,213.254834 189.254834,224 176,224 C162.745166,224 152,213.254834 152,200 L152,192 L200,192 Z M88,96 L104,96 L104,168 C104.039538,181.238422 114.761578,191.960462 128,192 L136,192 L136,200 C136,213.254834 125.254834,224 112,224 C98.745166,224 88,213.254834 88,200 L88,96 Z M80,224 C87.5541753,234.072234 99.4097079,240 112,240 C124.590292,240 136.445825,234.072234 144,224 C151.554175,234.072234 163.409708,240 176,240 C188.590292,240 200.445825,234.072234 208,224 C215.554175,234.072234 227.409708,240 240,240 C252.590292,240 264.445825,234.072234 272,224 C279.554175,234.072234 291.409708,240 304,240 C316.590292,240 328.445825,234.072234 336,224 C343.554175,234.072234 355.409708,240 368,240 C380.590292,240 392.445825,234.072234 400,224 C405.881282,231.805922 414.419885,237.185242 424,239.12 L424,432 L200,432 L200,320 C200,284.653776 171.346224,256 136,256 C100.653776,256 72,284.653776 72,320 L72,432 L56,432 L56,239.12 C65.5801153,237.185242 74.1187178,231.805922 80,224 Z M184,320 L184,432 L88,432 L88,320 C88.0000006,293.490332 109.490332,272.000001 136,272.000001 C162.509668,272.000001 183.999999,293.490332 184,320 Z M24,200.56 L38,102.88 C38.5243136,98.9483528 41.8735571,96.0092208 45.84,96 L72,96 L72,200 C72.1000344,208.574374 67.6180958,216.55079 60.2424871,220.92461 C52.8668785,225.298429 43.7181301,225.405164 36.2424871,221.20461 C28.7668441,217.004055 24.1000344,209.134374 24,200.56 Z M456,464 L24,464 C19.581722,464 16,460.418278 16,456 C16,451.581722 19.581722,448 24,448 L456,448 C460.418278,448 464,451.581722 464,456 C464,460.418278 460.418278,464 456,464 Z" id="Shape" fill-rule="nonzero"></path>
                <path d="M290.68,114.08 L304.76,57.92 C305.340614,55.5268332 304.811626,52.9994421 303.32,51.04 C301.793423,49.1080636 299.462243,47.9867364 297,48 L193,48 L193,40 C193,35.581722 189.418278,32 185,32 L161,32 L161,48 L177,48 L177,56 C177,60.418278 180.581722,64 185,64 L194.76,64 L207.32,114.08 C195.271156,119.289724 189.603574,133.180688 194.568915,145.332283 C199.534256,157.483878 213.307932,163.430825 225.557322,158.711893 C237.806712,153.99296 244.030599,140.342188 239.56,128 L258.44,128 C254.061683,140.277701 260.283734,153.805487 272.455117,158.47122 C284.626499,163.136952 298.296815,157.234632 303.247384,145.176295 C308.197952,133.117958 302.618626,119.312669 290.68,114.08 Z M217,144 C212.581722,144 209,140.418278 209,136 C209,131.581722 212.581722,128 217,128 C221.418278,128 225,131.581722 225,136 C225,140.418278 221.418278,144 217,144 Z M225,112 L223.24,112 L219.24,96 L225,96 L225,112 Z M225,80 L215.24,80 L211.24,64 L225,64 L225,80 Z M257,112 L241,112 L241,96 L257,96 L257,112 Z M257,80 L241,80 L241,64 L257,64 L257,80 Z M273,64 L286.76,64 L282.76,80 L273,80 L273,64 Z M273,96 L278.76,96 L274.76,112 L273,112 L273,96 Z M281,144 C276.581722,144 273,140.418278 273,136 C273,131.581722 276.581722,128 281,128 C285.418278,128 289,131.581722 289,136 C289,140.418278 285.418278,144 281,144 Z" id="Shape" fill-rule="nonzero"></path>
            </g>
        </g>
    </g>
</svg>