<?xml version="1.0" encoding="UTF-8"?>
<svg width="593px" height="669px" viewBox="0 0 593 669" version="1.1" xmlns="http://www.w3.org/2000/svg" xmlns:xlink="http://www.w3.org/1999/xlink">
    <!-- Generator: Sketch 52.5 (67469) - http://www.bohemiancoding.com/sketch -->
    <title>Combined Shape</title>
    <desc>Created with Sketch.</desc>
    <g id="Page-2" stroke="none" stroke-width="1" fill="none" fill-rule="evenodd">
        <g id="icon" transform="translate(-864.000000, -1722.000000)" fill="#00BFA5" fill-rule="nonzero">
            <path d="M897.039196,2084.7821 C891.792573,2083.90613 886.486325,2083.01173 881.120455,2082.09889 C871.232742,2080.41679 864,2071.8553 864,2061.83317 L864,2000.55733 C864,1989.20383 873.211056,1980 884.573469,1980 L909.082782,1980 C920.369149,1896.77747 971.594954,1826.65213 1042.46726,1789.14503 L1034.61882,1771.28987 C1030.34092,1761.55769 1034.76249,1750.20027 1044.49467,1745.92237 C1045.13979,1745.6388 1045.8,1745.39086 1046.47231,1745.17969 C1063.11068,1739.95364 1077.20557,1732.13964 1091.35877,1728.67488 C1118.91038,1721.93015 1143.08872,1722.00001 1161.49982,1722.00001 C1181.7528,1722.00001 1209.0725,1723.70448 1240.4085,1731.86062 C1252.19198,1734.92762 1263.12925,1740.9714 1276.52733,1745.17969 C1286.66984,1748.36543 1292.30943,1759.17011 1289.1237,1769.31263 C1288.90047,1770.02334 1288.63617,1770.72049 1288.33213,1771.40057 L1280.233,1789.51703 C1350.74235,1827.11462 1401.66806,1897.05182 1412.91722,1980 L1436.42653,1980 C1447.78894,1980 1457,1989.20383 1457,2000.55733 L1457,2062.11408 C1457,2072.01497 1449.937,2080.50932 1440.19608,2082.3234 C1434.17329,2083.44504 1428.22663,2084.53866 1422.35609,2085.60426 C1425.33453,2091.94933 1427,2099.02904 1427,2106.49066 L1427,2140.09423 C1427,2167.27178 1404.90513,2189.38275 1377.74865,2189.38275 L1366.39035,2189.38275 C1362.70073,2200.93809 1358.04561,2212.16299 1352.46886,2222.94763 L1360.51894,2231.00395 C1380.02345,2250.50268 1379.48531,2281.75127 1360.51267,2300.71772 L1336.77936,2324.4684 C1317.80462,2343.484 1286.58026,2343.95876 1267.12068,2324.46212 L1259.07792,2316.41312 C1248.30164,2321.99315 1237.0844,2326.65293 1225.53906,2330.34542 L1225.53906,2341.71358 C1225.53906,2368.88903 1203.44523,2391 1176.28771,2391 L1142.71124,2391 C1115.55477,2391 1093.45989,2368.88903 1093.45989,2341.71148 L1093.45989,2330.34332 C1081.91455,2326.65189 1070.69731,2321.9921 1059.92104,2316.41103 L1051.87096,2324.46735 C1032.37376,2344.00373 1001.14209,2343.43067 982.21124,2324.46003 L958.48002,2300.71144 C939.515732,2281.75336 938.970283,2250.50791 958.486289,2230.99768 L966.530098,2222.94763 C960.95335,2212.16299 956.298223,2200.93914 952.608604,2189.38275 L941.250303,2189.38275 C914.094873,2189.38275 892,2167.27178 892,2140.09423 L892,2106.49066 C892,2098.70512 893.813211,2091.33537 897.039196,2084.7821 Z M937.832851,2091.41121 C932.326746,2094.3671 928.573446,2100.18453 928.573446,2106.86246 L928.573446,2139.72243 C928.573446,2149.38285 936.427997,2157.24249 946.08091,2157.24249 L968.710641,2157.24249 C975.700751,2157.24249 981.803943,2161.97504 983.551215,2168.74767 C987.792693,2185.19606 994.333213,2200.96442 1002.98987,2215.61407 C1006.55084,2221.64123 1005.58217,2229.3168 1000.63463,2234.26819 L984.603666,2250.31163 C977.673841,2257.23867 977.854699,2268.34401 984.597535,2275.08392 L1007.81786,2298.32231 C1014.54844,2305.06733 1025.64924,2305.26469 1032.57089,2298.32845 L1048.60696,2282.27887 C1052.25273,2278.63129 1059.83753,2275.5359 1067.24862,2279.92282 C1081.8879,2288.58724 1097.64401,2295.13285 1114.07858,2299.37763 C1120.84697,2301.12524 1125.57584,2307.2342 1125.57584,2314.22975 L1125.57584,2334.5517 L1125.69334,2334.59914 L1125.69334,2338.91398 C1126.70457,2347.61893 1134.11836,2354.39818 1143.0833,2354.39818 L1175.9167,2354.39818 C1185.56961,2354.39818 1193.42416,2346.53854 1193.42416,2336.87811 L1193.42416,2314.22975 C1193.42416,2307.2342 1198.15303,2301.12524 1204.92142,2299.37763 C1221.35599,2295.13285 1237.1121,2288.58724 1251.75138,2279.92282 C1257.77487,2276.35807 1265.44345,2277.32748 1270.39201,2282.27989 L1286.42196,2298.32334 C1293.33339,2305.24833 1304.43215,2305.08778 1311.17396,2298.33049 L1334.39633,2275.09107 C1341.1218,2268.36856 1341.3466,2257.25912 1334.40247,2250.31879 L1318.36537,2234.26921 C1313.41783,2229.31782 1312.44916,2221.64225 1316.01013,2215.61509 C1324.66781,2200.96544 1331.20731,2185.19708 1335.44878,2168.74869 C1337.19606,2161.97504 1343.30027,2157.24351 1350.28936,2157.24351 L1372.91909,2157.24351 C1382.572,2157.24351 1390.42655,2149.38387 1390.42655,2139.72345 L1390.42655,2106.86349 C1390.42655,2100.94363 1387.47703,2095.7 1382.97161,2092.52683 C1351.72253,2097.82841 1322.91336,2102.23194 1296.5441,2105.73742 C1297.51069,2112.36979 1298,2119.10056 1298,2125.89052 C1298,2202.16628 1236.43915,2264 1160.5,2264 C1084.56085,2264 1023,2202.16628 1023,2125.89052 C1023,2118.51293 1023.57768,2111.20587 1024.71721,2104.01982 C998.173305,2100.56442 969.211844,2096.36155 937.832851,2091.41121 Z M1057.98979,1824.45864 C1000.51662,1855.79808 958.694103,1912.57021 947.874096,1980 L1374.12599,1980 C1363.33627,1912.75947 1321.71791,1856.11685 1264.49377,1824.72313 L1218.31902,1928.00855 C1213.97892,1937.71666 1202.61838,1942.05582 1192.94454,1937.70034 C1183.2707,1933.34486 1178.94686,1921.94407 1183.28696,1912.23597 L1244.31734,1775.72092 C1208.77266,1765.56302 1181.04025,1760.53221 1161.49982,1760.53221 C1141.93501,1760.53221 1114.15775,1765.57558 1078.54919,1775.75897 L1138.85469,1912.95333 C1143.13395,1922.6886 1138.73884,1934.06191 1129.03794,1938.35633 C1119.33703,1942.65075 1108.00387,1938.24007 1103.72461,1928.5048 L1057.98982,1824.45863 Z M1415.90659,2018.39383 L1416,2020 L906,2020 L906.093411,2018.39383 L902.42398,2018.39383 L902.42398,2046.75487 C1025.61945,2067.34627 1115.15418,2077.60617 1170.03036,2077.60617 C1224.3569,2077.60617 1307.48446,2067.52509 1418.57602,2047.26681 L1418.57602,2018.39383 L1415.90659,2018.39383 Z M1061.33699,2125.89052 C1061.33699,2180.89949 1105.73378,2225.49308 1160.5,2225.49308 C1215.26622,2225.49308 1259.66301,2180.89949 1259.66301,2125.89052 C1259.66301,2122.9093 1259.53314,2119.94736 1259.27545,2117.01022 C1224.5684,2120.77613 1194.832,2122.66563 1170.00878,2122.66563 C1141.66821,2122.66563 1105.66232,2120.20124 1061.89052,2115.28852 C1061.52269,2118.78853 1061.33699,2122.32568 1061.33699,2125.89052 Z" id="Combined-Shape"></path>
        </g>
    </g>
</svg>