<?xml version="1.0" encoding="UTF-8"?>
<svg width="512px" height="356px" viewBox="0 0 512 356" version="1.1" xmlns="http://www.w3.org/2000/svg" xmlns:xlink="http://www.w3.org/1999/xlink">
    <!-- Generator: Sketch 52.5 (67469) - http://www.bohemiancoding.com/sketch -->
    <title>truck</title>
    <desc>Created with Sketch.</desc>
    <g id="Page-2" stroke="none" stroke-width="1" fill="none" fill-rule="evenodd">
        <g id="icon" transform="translate(-1826.000000, -1977.000000)" fill="#ffffff">
            <g id="truck" transform="translate(1826.000000, 1977.000000)">
                <path d="M386.689,226.403 C351.102,226.403 322.151,255.354 322.151,290.941 C322.151,326.528 351.102,355.479 386.689,355.479 C422.282,355.479 451.227,326.528 451.227,290.941 C451.227,255.354 422.276,226.403 386.689,226.403 Z M386.689,323.21 C368.893,323.21 354.42,308.737 354.42,290.941 C354.42,273.145 368.893,258.672 386.689,258.672 C404.485,258.672 418.958,273.145 418.958,290.941 C418.958,308.738 404.485,323.21 386.689,323.21 Z" id="Shape" fill-rule="nonzero"></path>
                <path d="M166.185,226.403 C130.598,226.403 101.647,255.354 101.647,290.941 C101.647,326.528 130.598,355.479 166.185,355.479 C201.772,355.479 230.723,326.528 230.723,290.941 C230.723,255.354 201.772,226.403 166.185,226.403 Z M166.185,323.21 C148.389,323.21 133.916,308.737 133.916,290.941 C133.916,273.145 148.389,258.672 166.185,258.672 C183.976,258.672 198.454,273.145 198.454,290.941 C198.454,308.738 183.981,323.21 166.185,323.21 Z" id="Shape" fill-rule="nonzero"></path>
                <path d="M430.15,41.675 C427.407,36.227 421.83,32.79 415.731,32.79 L330.756,32.79 L330.756,65.059 L405.781,65.059 L449.715,152.443 L478.553,137.943 L430.15,41.675 Z" id="Path"></path>
                <rect id="Rectangle" x="216.202" y="275.345" width="122.084" height="32.269"></rect>
                <path d="M117.781,275.345 L61.849,275.345 C52.937,275.345 45.715,282.568 45.715,291.479 C45.715,300.391 52.938,307.613 61.849,307.613 L117.782,307.613 C126.694,307.613 133.916,300.39 133.916,291.479 C133.916,282.567 126.693,275.345 117.781,275.345 Z" id="Path"></path>
                <path d="M508.612,176.709 L476.876,135.835 C473.827,131.898 469.121,129.596 464.135,129.596 L346.891,129.596 L346.891,16.655 C346.891,7.743 339.668,0.521 330.757,0.521 L61.849,0.521 C52.937,0.521 45.715,7.744 45.715,16.655 C45.715,25.566 52.938,32.789 61.849,32.789 L314.622,32.789 L314.622,145.73 C314.622,154.642 321.845,161.864 330.756,161.864 L456.234,161.864 L479.731,192.132 L479.731,275.343 L435.092,275.343 C426.18,275.343 418.958,282.566 418.958,291.477 C418.958,300.389 426.181,307.611 435.092,307.611 L495.865,307.611 C504.777,307.611 511.999,300.388 512,291.477 L512,186.605 C512,183.023 510.806,179.538 508.612,176.709 Z" id="Path"></path>
                <path d="M116.706,193.597 L42.487,193.597 C33.575,193.597 26.353,200.82 26.353,209.731 C26.353,218.643 33.576,225.865 42.487,225.865 L116.705,225.865 C125.617,225.865 132.839,218.642 132.839,209.731 C132.84,200.82 125.617,193.597 116.706,193.597 Z" id="Path"></path>
                <path d="M153.815,130.134 L16.134,130.134 C7.223,130.134 0,137.357 0,146.269 C0,155.181 7.223,162.403 16.134,162.403 L153.815,162.403 C162.727,162.403 169.949,155.18 169.949,146.269 C169.949,137.358 162.727,130.134 153.815,130.134 Z" id="Path"></path>
                <path d="M180.168,66.672 L42.487,66.672 C33.575,66.672 26.353,73.895 26.353,82.806 C26.353,91.718 33.576,98.94 42.487,98.94 L180.168,98.94 C189.08,98.94 196.302,91.717 196.302,82.806 C196.303,73.895 189.08,66.672 180.168,66.672 Z" id="Path"></path>
            </g>
        </g>
    </g>
</svg>