<?xml version="1.0" encoding="UTF-8"?>
<svg width="208px" height="56px" viewBox="0 0 208 56" version="1.1" xmlns="http://www.w3.org/2000/svg" xmlns:xlink="http://www.w3.org/1999/xlink">
    <!-- Generator: Sketch 52.5 (67469) - http://www.bohemiancoding.com/sketch -->
    <title>logo file</title>
    <desc>Created with Sketch.</desc>
    <defs>
        <radialGradient cx="50.0017466%" cy="50%" fx="50.0017466%" fy="50%" r="111.538662%" gradientTransform="translate(0.500017,0.500000),scale(0.957645,1.000000),translate(-0.500017,-0.500000)" id="radialGradient-1">
            <stop stop-color="#00EFA9" offset="0%"></stop>
            <stop stop-color="#05E3AE" offset="13%"></stop>
            <stop stop-color="#12C4BD" offset="37%"></stop>
            <stop stop-color="#2791D5" offset="68%"></stop>
            <stop stop-color="#3F56F0" offset="100%"></stop>
        </radialGradient>
        <radialGradient cx="50.0017196%" cy="49.9960689%" fx="50.0017196%" fy="49.9960689%" r="111.53811%" gradientTransform="translate(0.500017,0.499961),scale(0.957645,1.000000),rotate(180.000000),translate(-0.500017,-0.499961)" id="radialGradient-2">
            <stop stop-color="#00EFA9" offset="0%"></stop>
            <stop stop-color="#05E3AE" offset="13%"></stop>
            <stop stop-color="#12C4BD" offset="37%"></stop>
            <stop stop-color="#2791D5" offset="68%"></stop>
            <stop stop-color="#3F56F0" offset="100%"></stop>
        </radialGradient>
    </defs>
    <g id="Page-2" stroke="none" stroke-width="1" fill="none" fill-rule="evenodd">
        <g id="Artboard-Copy-11" transform="translate(-835.000000, -898.000000)">
            <g id="Group-2" transform="translate(797.000000, 864.000000)">
                <g id="logo-file" transform="translate(38.000000, 34.000000)">
                    <path d="M39.2625599,49.2353713 C35.3609797,51.6556505 30.9000955,52.9930388 26.3275783,53.1133227 C12.7887205,53.4706171 1.11521652,42.688605 0.0815354808,29.0003079 C-1.09398121,13.4863236 10.5881189,0.580152672 25.6291451,0.580152672 C40.040507,0.580152672 51.3293355,12.312045 51.3293355,26.8521842 C51.3593116,32.9001015 49.3278482,38.772902 45.5785445,43.477267 L57.8709677,56 L55.2491572,56 C49.24316,55.9992054 43.4868985,53.5634793 39.2625599,49.2353713 Z M33.1550308,42.9848979 L26.4113902,35.9915136 C27.9878734,34.3935233 30.1291621,33.5008781 32.3584733,33.5123357 C34.5877846,33.5237933 36.7200355,34.4384026 38.2804555,36.0525151 L39.4753134,37.2877951 C41.4631616,34.3379377 42.526929,30.7388502 42.526929,26.8521842 C42.526929,17.0636248 35.4351464,8.93081997 25.6291451,8.93081997 C15.8231439,8.93081997 8.73351028,17.0592676 8.73351028,26.8521842 C8.73351028,36.6451009 15.8252929,44.7735485 25.6312941,44.7735485 C28.2441517,44.7952998 30.8241062,44.181956 33.1550308,42.9848979 Z" id="Shape" fill="url(#radialGradient-1)" fill-rule="nonzero"></path>
                    <path d="M152.75083,56 L150.129032,56 L162.421395,43.477267 C158.67211,38.772902 156.640656,32.9001015 156.670632,26.8521842 C156.670632,12.312045 167.959405,0.580152672 182.370695,0.580152672 C197.413796,0.580152672 209.095839,13.4863236 207.918179,29.0003079 C206.880205,42.688605 195.211057,53.4706171 181.674415,53.1133227 C177.10192,52.9930388 172.641058,51.6556505 168.739497,49.2353713 C164.514655,53.5640162 158.757542,55.9997871 152.75083,56 Z M182.372844,44.7691913 C192.170201,44.7691913 199.270545,36.6363864 199.270545,26.847827 C199.270545,17.0592676 192.178797,8.92646272 182.372844,8.92646272 C172.566892,8.92646272 165.475144,17.057089 165.475144,26.8500056 C165.475144,30.7366715 166.549651,34.335759 168.526745,37.2856165 L169.721597,36.0503364 C171.282009,34.4362239 173.414249,33.5216147 175.64355,33.5101571 C177.87285,33.4986995 180.014128,34.3913447 181.590603,35.9893349 L174.846996,42.9827192 C177.178741,44.1793621 179.759451,44.7919661 182.372844,44.7691913 Z" id="Shape" fill="url(#radialGradient-2)" fill-rule="nonzero"></path>
                    <path d="M114.642577,21.5397288 L105.201448,47.4787212 C104.255682,50.0713272 101.777348,51.7977832 99.0022449,51.7972082 C96.2221934,51.7976313 93.740651,50.0649687 92.7986956,47.4657657 L85.9693592,28.6177291 L79.0661451,47.5132691 C78.1255408,50.0875402 75.6642242,51.8015543 72.9082262,51.8015267 C70.1491974,51.8011458 67.6861126,50.083052 66.7481343,47.5046321 L57.2939686,21.5246141 C56.8079788,20.1915486 57.0064754,18.7067481 57.8258515,17.5460093 C58.6452275,16.3852704 59.9825899,15.6943525 61.409388,15.6946566 C63.3029408,15.6967309 64.9803513,16.9087767 65.566092,18.6981643 L72.9038804,40.88871 L79.763637,20.1470167 C80.6395411,17.4978593 83.1285082,15.7072888 85.9345932,15.7076121 C88.7398779,15.7082216 91.2277223,17.4986148 92.1033766,20.1470167 L98.9631332,40.88871 L106.366108,18.6916866 C106.959821,16.9108168 108.634915,15.7082762 110.522812,15.7076121 C111.950153,15.7076519 113.287969,16.3987373 114.108034,17.5596555 C114.928098,18.7205736 115.127561,20.205728 114.642577,21.5397288 Z" id="Path" fill="#595959"></path>
                    <path d="M120.774228,6.03815072 C120.774228,3.48753219 122.839487,1.41984733 125.387114,1.41984733 C127.934741,1.41984733 130,3.48753219 130,6.03815072 C130,8.58876925 127.934741,10.6564541 125.387114,10.6564541 C124.162255,10.6611958 122.986195,10.1761487 122.120083,9.30901883 C121.25397,8.44188894 120.769492,7.2644484 120.774228,6.03815072 Z" id="Path" fill="#595959"></path>
                    <path d="M120.774194,51.8015267 L120.774194,24.4724468 C120.774194,19.6246071 124.904728,15.6946565 130,15.6946565 L130,43.0237364 C130,47.8715761 125.869466,51.8015267 120.774194,51.8015267 Z" id="Path" fill="#595959"></path>
                    <path d="M135.871002,6.03812499 C135.871007,3.48867257 137.934468,1.42147863 140.480938,1.41984829 C143.027409,1.41821795 145.093509,3.482768 145.09677,6.03221833 C145.100032,8.58166866 143.039221,10.6515107 140.492755,10.6564112 C139.266363,10.663528 138.088015,10.1795317 137.219978,9.31214574 C136.351941,8.44475978 135.866249,7.26596424 135.871002,6.03812499 Z" id="Path" fill="#595959"></path>
                    <path d="M145.096774,51.8015267 C140.001502,51.8015267 135.870968,47.8715761 135.870968,43.0237364 L135.870968,15.6946565 C140.96624,15.6946565 145.096774,19.6246071 145.096774,24.4724468 L145.096774,51.8015267 Z" id="Path" fill="#595959"></path>
                </g>
            </g>
        </g>
    </g>
</svg>